# ProBuilder 5.0.7
# https://unity3d.com/unity/features/worldbuilding/probuilder
# 14.08.2023 12:21:50

mtllib ./PixelHeart.mtl
o PixelHeart

g default
v -0.7499998 0.5999999 0.05000037
v -0.7499998 -0.1 0.05000037
v -0.7499998 -0.1 -0.04999959
v -0.7499998 0.5999999 -0.04999959
v -0.6499998 -0.1 0.05000037
v -0.6499998 -0.2 0.05000037
v -0.6499998 -0.2 -0.04999959
v -0.6499998 -0.1 -0.04999959
v -0.6499998 0.6999999 0.05000037
v -0.6499998 0.5999999 0.05000037
v -0.6499998 0.5999999 -0.04999959
v -0.6499998 0.6999999 -0.04999959
v -0.5499998 -0.2 0.05000037
v -0.5499998 -0.3000001 0.05000037
v -0.5499998 -0.3000001 -0.04999959
v -0.5499998 -0.2 -0.04999959
v -0.5499998 -0.1 0.05000037
v -0.5499998 -0.2 0.1500004
v -0.5499998 0.3 0.1500004
v -0.5499998 0.3 0.05000037
v -0.5499998 -0.1 -0.04999959
v -0.5499998 -0.2 -0.1499996
v -0.5499998 0.3 -0.04999959
v -0.5499998 0.3 -0.1499996
v -0.5499998 0.8 0.05000037
v -0.5499998 0.6999999 0.05000037
v -0.5499998 0.6999999 -0.04999959
v -0.5499998 0.8 -0.04999959
v -0.4499998 -0.3000001 0.05000037
v -0.4499998 -0.4 0.05000037
v -0.4499998 -0.4 -0.04999959
v -0.4499998 -0.3000001 -0.04999959
v -0.4499998 -0.2 0.1500004
v -0.4499998 -0.3000001 0.1500004
v -0.4499998 -0.2 0.05000037
v -0.4499998 -0.2 -0.04999959
v -0.4499998 -0.3000001 -0.1499996
v -0.4499998 -0.2 -0.1499996
v -0.4499998 0.1999999 0.2500004
v -0.4499998 -0.2 0.2500004
v -0.4499998 0.1999999 0.1500004
v -0.4499998 0.1999999 -0.1499996
v -0.4499998 -0.2 -0.2499996
v -0.4499998 0.1999999 -0.2499996
v -0.4499998 0.5 0.1500004
v -0.4499998 0.3 0.1500004
v -0.4499998 0.3 0.05000037
v -0.4499998 0.5 0.05000037
v -0.4499998 0.5 -0.04999959
v -0.4499998 0.3 -0.04999959
v -0.4499998 0.3 -0.1499996
v -0.4499998 0.5 -0.1499996
v -0.3499998 -0.4 0.05000037
v -0.3499998 -0.5000001 0.05000037
v -0.3499998 -0.5000001 -0.04999959
v -0.3499998 -0.4 -0.04999959
v -0.3499998 -0.3000001 0.1500004
v -0.3499998 -0.4 0.1500004
v -0.3499998 -0.3000001 0.05000037
v -0.3499998 -0.3000001 -0.04999959
v -0.3499998 -0.4 -0.1499996
v -0.3499998 -0.3000001 -0.1499996
v -0.3499998 -0.2 0.2500004
v -0.3499998 -0.3000001 0.2500004
v -0.3499998 -0.2 0.1500004
v -0.3499998 -0.2 -0.1499996
v -0.3499998 -0.3000001 -0.2499996
v -0.3499998 -0.2 -0.2499996
v -0.3499998 0.3 0.2500004
v -0.3499998 0.1999999 0.2500004
v -0.3499998 0.1999999 0.1500004
v -0.3499998 0.3 0.1500004
v -0.3499998 0.3 -0.1499996
v -0.3499998 0.1999999 -0.1499996
v -0.3499998 0.1999999 -0.2499996
v -0.3499998 0.3 -0.2499996
v -0.2499998 -0.5000001 0.05000037
v -0.2499998 -0.6 0.05000037
v -0.2499998 -0.6 -0.04999959
v -0.2499998 -0.5000001 -0.04999959
v -0.2499998 -0.4 0.1500004
v -0.2499998 -0.5000001 0.1500004
v -0.2499998 -0.4 0.05000037
v -0.2499998 -0.4 -0.04999959
v -0.2499998 -0.5000001 -0.1499996
v -0.2499998 -0.4 -0.1499996
v -0.2499998 -0.3000001 0.2500004
v -0.2499998 -0.4 0.2500004
v -0.2499998 -0.3000001 0.1500004
v -0.2499998 -0.3000001 -0.1499996
v -0.2499998 -0.4 -0.2499996
v -0.2499998 -0.3000001 -0.2499996
v -0.1499998 -0.6 0.05000037
v -0.1499998 -0.7 0.05000037
v -0.1499998 -0.7 -0.04999959
v -0.1499998 -0.6 -0.04999959
v -0.1499998 -0.5000001 0.1500004
v -0.1499998 -0.6 0.1500004
v -0.1499998 -0.5000001 0.05000037
v -0.1499998 -0.5000001 -0.04999959
v -0.1499998 -0.6 -0.1499996
v -0.1499998 -0.5000001 -0.1499996
v -0.1499998 -0.4 0.2500004
v -0.1499998 -0.5000001 0.2500004
v -0.1499998 -0.4 0.1500004
v -0.1499998 -0.4 -0.1499996
v -0.1499998 -0.5000001 -0.2499996
v -0.1499998 -0.4 -0.2499996
v -0.04999981 -0.7 0.05000037
v -0.04999981 -0.8000001 0.05000037
v -0.04999981 -0.8000001 -0.04999959
v -0.04999981 -0.7 -0.04999959
v -0.04999981 -0.6 0.1500004
v -0.04999981 -0.7 0.1500004
v -0.04999981 -0.6 0.05000037
v -0.04999981 -0.6 -0.04999959
v -0.04999981 -0.7 -0.1499996
v -0.04999981 -0.6 -0.1499996
v -0.04999981 -0.5000001 0.2500004
v -0.04999981 -0.6 0.2500004
v -0.04999981 -0.5000001 0.1500004
v -0.04999981 -0.5000001 -0.1499996
v -0.04999981 -0.6 -0.2499996
v -0.04999981 -0.5000001 -0.2499996
v 0.05000025 0.1999999 0.2500004
v 0.05000025 0.0999999 0.2500004
v 0.05000025 0.0999999 0.1500004
v 0.05000025 0.1999999 0.1500004
v 0.05000025 0.1999999 -0.1499996
v 0.05000025 0.0999999 -0.1499996
v 0.05000025 0.0999999 -0.2499996
v 0.05000025 0.1999999 -0.2499996
v 0.05000025 0.5 0.1500004
v 0.05000025 0.4 0.1500004
v 0.05000025 0.4 0.05000037
v 0.05000025 0.5 0.05000037
v 0.05000025 0.5 -0.04999959
v 0.05000025 0.4 -0.04999959
v 0.05000025 0.4 -0.1499996
v 0.05000025 0.5 -0.1499996
v 0.05000025 0.6999999 0.05000037
v 0.05000025 0.5999999 0.05000037
v 0.05000025 0.5999999 -0.04999959
v 0.05000025 0.6999999 -0.04999959
v 0.1500002 0.3 0.2500004
v 0.1500002 0.1999999 0.2500004
v 0.1500002 0.1999999 0.1500004
v 0.1500002 0.3 0.1500004
v 0.1500002 0.3 -0.1499996
v 0.1500002 0.1999999 -0.1499996
v 0.1500002 0.1999999 -0.2499996
v 0.1500002 0.3 -0.2499996
v 0.1500002 0.8 0.05000037
v 0.1500002 0.6999999 0.05000037
v 0.1500002 0.6999999 -0.04999959
v 0.1500002 0.8 -0.04999959
v -0.1499998 0.1999999 0.2500004
v -0.1499998 0.3 0.2500004
v -0.1499998 0.1999999 0.1500004
v -0.1499998 0.3 0.1500004
v -0.1499998 0.1999999 -0.1499996
v -0.1499998 0.3 -0.1499996
v -0.1499998 0.1999999 -0.2499996
v -0.1499998 0.3 -0.2499996
v -0.1499998 0.6999999 0.05000037
v -0.1499998 0.8 0.05000037
v -0.1499998 0.6999999 -0.04999959
v -0.1499998 0.8 -0.04999959
v -0.04999981 0.0999999 0.2500004
v -0.04999981 0.1999999 0.2500004
v -0.04999981 0.0999999 0.1500004
v -0.04999981 0.1999999 0.1500004
v -0.04999981 0.0999999 -0.1499996
v -0.04999981 0.1999999 -0.1499996
v -0.04999981 0.0999999 -0.2499996
v -0.04999981 0.1999999 -0.2499996
v -0.04999981 0.4 0.1500004
v -0.04999981 0.5 0.1500004
v -0.04999981 0.4 0.05000037
v -0.04999981 0.5 0.05000037
v -0.04999981 0.4 -0.04999959
v -0.04999981 0.5 -0.04999959
v -0.04999981 0.4 -0.1499996
v -0.04999981 0.5 -0.1499996
v -0.04999981 0.5999999 0.05000037
v -0.04999981 0.6999999 0.05000037
v -0.04999981 0.5999999 -0.04999959
v -0.04999981 0.6999999 -0.04999959
v 0.05000025 -0.8000001 0.05000037
v 0.05000025 -0.7 0.05000037
v 0.05000025 -0.8000001 -0.04999959
v 0.05000025 -0.7 -0.04999959
v 0.05000025 -0.7 0.1500004
v 0.05000025 -0.6 0.1500004
v 0.05000025 -0.6 0.05000037
v 0.05000025 -0.6 -0.04999959
v 0.05000025 -0.7 -0.1499996
v 0.05000025 -0.6 -0.1499996
v 0.05000025 -0.6 0.2500004
v 0.05000025 -0.5000001 0.2500004
v 0.05000025 -0.5000001 0.1500004
v 0.05000025 -0.5000001 -0.1499996
v 0.05000025 -0.6 -0.2499996
v 0.05000025 -0.5000001 -0.2499996
v 0.1500002 -0.7 0.05000037
v 0.1500002 -0.6 0.05000037
v 0.1500002 -0.7 -0.04999959
v 0.1500002 -0.6 -0.04999959
v 0.1500002 -0.6 0.1500004
v 0.1500002 -0.5000001 0.1500004
v 0.1500002 -0.5000001 0.05000037
v 0.1500002 -0.5000001 -0.04999959
v 0.1500002 -0.6 -0.1499996
v 0.1500002 -0.5000001 -0.1499996
v 0.1500002 -0.5000001 0.2500004
v 0.1500002 -0.4 0.2500004
v 0.1500002 -0.4 0.1500004
v 0.1500002 -0.4 -0.1499996
v 0.1500002 -0.5000001 -0.2499996
v 0.1500002 -0.4 -0.2499996
v 0.2500002 -0.6 0.05000037
v 0.2500002 -0.5000001 0.05000037
v 0.2500002 -0.6 -0.04999959
v 0.2500002 -0.5000001 -0.04999959
v 0.2500002 -0.5000001 0.1500004
v 0.2500002 -0.4 0.1500004
v 0.2500002 -0.4 0.05000037
v 0.2500002 -0.4 -0.04999959
v 0.2500002 -0.5000001 -0.1499996
v 0.2500002 -0.4 -0.1499996
v 0.2500002 -0.4 0.2500004
v 0.2500002 -0.3000001 0.2500004
v 0.2500002 -0.3000001 0.1500004
v 0.2500002 -0.3000001 -0.1499996
v 0.2500002 -0.4 -0.2499996
v 0.2500002 -0.3000001 -0.2499996
v 0.3500002 -0.5000001 0.05000037
v 0.3500002 -0.4 0.05000037
v 0.3500002 -0.5000001 -0.04999959
v 0.3500002 -0.4 -0.04999959
v 0.3500002 -0.4 0.1500004
v 0.3500002 -0.3000001 0.1500004
v 0.3500002 -0.3000001 0.05000037
v 0.3500002 -0.3000001 -0.04999959
v 0.3500002 -0.4 -0.1499996
v 0.3500002 -0.3000001 -0.1499996
v 0.3500002 -0.3000001 0.2500004
v 0.3500002 -0.2 0.2500004
v 0.3500002 -0.2 0.1500004
v 0.3500002 -0.2 -0.1499996
v 0.3500002 -0.3000001 -0.2499996
v 0.3500002 -0.2 -0.2499996
v 0.3500002 0.1999999 0.2500004
v 0.3500002 0.3 0.2500004
v 0.3500002 0.1999999 0.1500004
v 0.3500002 0.3 0.1500004
v 0.3500002 0.1999999 -0.1499996
v 0.3500002 0.3 -0.1499996
v 0.3500002 0.1999999 -0.2499996
v 0.3500002 0.3 -0.2499996
v 0.4500002 -0.4 0.05000037
v 0.4500002 -0.3000001 0.05000037
v 0.4500002 -0.4 -0.04999959
v 0.4500002 -0.3000001 -0.04999959
v 0.4500002 -0.3000001 0.1500004
v 0.4500002 -0.2 0.1500004
v 0.4500002 -0.2 0.05000037
v 0.4500002 -0.2 -0.04999959
v 0.4500002 -0.3000001 -0.1499996
v 0.4500002 -0.2 -0.1499996
v 0.4500002 -0.2 0.2500004
v 0.4500002 0.1999999 0.2500004
v 0.4500002 0.1999999 0.1500004
v 0.4500002 0.1999999 -0.1499996
v 0.4500002 -0.2 -0.2499996
v 0.4500002 0.1999999 -0.2499996
v 0.4500002 0.3 0.1500004
v 0.4500002 0.5 0.1500004
v 0.4500002 0.3 0.05000037
v 0.4500002 0.5 0.05000037
v 0.4500002 0.3 -0.04999959
v 0.4500002 0.5 -0.04999959
v 0.4500002 0.3 -0.1499996
v 0.4500002 0.5 -0.1499996
v 0.5500002 -0.3000001 0.05000037
v 0.5500002 -0.2 0.05000037
v 0.5500002 -0.3000001 -0.04999959
v 0.5500002 -0.2 -0.04999959
v 0.5500002 -0.2 0.1500004
v 0.5500002 -0.1 0.05000037
v 0.5500002 0.3 0.1500004
v 0.5500002 0.3 0.05000037
v 0.5500002 -0.1 -0.04999959
v 0.5500002 -0.2 -0.1499996
v 0.5500002 0.3 -0.04999959
v 0.5500002 0.3 -0.1499996
v 0.5500002 0.6999999 0.05000037
v 0.5500002 0.8 0.05000037
v 0.5500002 0.6999999 -0.04999959
v 0.5500002 0.8 -0.04999959
v 0.6500002 -0.2 0.05000037
v 0.6500002 -0.1 0.05000037
v 0.6500002 -0.2 -0.04999959
v 0.6500002 -0.1 -0.04999959
v 0.6500002 0.5999999 0.05000037
v 0.6500002 0.6999999 0.05000037
v 0.6500002 0.5999999 -0.04999959
v 0.6500002 0.6999999 -0.04999959
v 0.7500002 -0.1 0.05000037
v 0.7500002 0.5999999 0.05000037
v 0.7500002 -0.1 -0.04999959
v 0.7500002 0.5999999 -0.04999959
v -0.5499998 0.5999999 0.05000037
v -0.1499998 0.5999999 0.05000037
v 0.5500002 0.5999999 0.05000037
v 0.1500002 0.5999999 0.05000037
v -0.5499998 0.5 0.05000037
v -0.4499998 0.5999999 0.05000037
v -0.3499998 0.5999999 0.05000037
v -0.3499998 0.5 0.05000037
v -0.5499998 0.5999999 -0.04999959
v -0.1499998 0.5999999 -0.04999959
v 0.5500002 0.5999999 -0.04999959
v 0.1500002 0.5999999 -0.04999959
v -0.5499998 0.5 -0.04999959
v -0.4499998 0.5999999 -0.04999959
v -0.3499998 0.5999999 -0.04999959
v -0.3499998 0.5 -0.04999959

vt 0.857422 0.5
vt 0.849609 0.5
vt 0.853516 0.5
vt 0.958984 0.5

vn -1 0 0
vn 1 0 0
vn 0 0 1
vn 0 0 -1
vn 0 -1 0
vn 0 1 0

usemtl palette
f 13/2/1 18/2/1 17/2/1
f 22/2/1 16/2/1 21/2/1
f 286/2/2 290/2/2 289/2/2
f 294/2/2 293/2/2 288/2/2
f 69/3/3 70/3/3 87/3/3
f 69/3/3 157/3/3 158/3/3
f 87/3/3 88/3/3 103/3/3
f 103/3/3 104/3/3 119/3/3
f 157/3/3 169/3/3 170/3/3
f 119/3/3 120/3/3 199/3/3
f 45/2/3 72/2/3 160/2/3
f 172/2/3 171/2/3 127/2/3
f 133/2/3 148/2/3 256/2/3
f 273/2/3 266/2/3 289/2/3
f 185/1/3 136/1/3 142/1/3
f 180/1/3 179/1/3 135/1/3
f 10/2/3 20/2/3 317/2/3
f 26/2/3 318/2/3 319/2/3
f 26/2/3 319/2/3 314/2/3
f 26/2/3 314/2/3 165/2/3
f 314/2/3 180/2/3 185/2/3
f 154/2/3 315/2/3 297/2/3
f 315/2/3 292/2/3 302/2/3
f 292/2/3 290/2/3 302/2/3
f 315/2/3 302/2/3 305/2/3
f 187/1/4 143/1/4 137/1/4
f 182/1/4 138/1/4 181/1/4
f 11/2/4 325/2/4 23/2/4
f 27/2/4 327/2/4 326/2/4
f 27/2/4 322/2/4 327/2/4
f 27/2/4 167/2/4 322/2/4
f 322/2/4 187/2/4 182/2/4
f 155/2/4 299/2/4 323/2/4
f 323/2/4 304/2/4 295/2/4
f 295/2/4 304/2/4 293/2/4
f 323/2/4 307/2/4 304/2/4
f 52/2/4 162/2/4 73/2/4
f 174/2/4 130/2/4 173/2/4
f 140/2/4 258/2/4 149/2/4
f 274/2/4 294/2/4 270/2/4
f 76/3/4 92/3/4 75/3/4
f 76/3/4 164/3/4 163/3/4
f 92/3/4 108/3/4 91/3/4
f 108/3/4 124/3/4 107/3/4
f 163/3/4 176/3/4 175/3/4
f 124/3/4 203/3/4 123/3/4
f 178/2/6 180/2/6 320/2/6
f 328/2/6 52/2/6 49/2/6
f 3/1/1 2/1/1 1/1/1
f 1/1/1 4/1/1 3/1/1
f 7/1/1 6/1/1 5/1/1
f 5/1/1 8/1/1 7/1/1
f 11/1/1 10/1/1 9/1/1
f 9/1/1 12/1/1 11/1/1
f 15/1/1 14/1/1 13/1/1
f 13/1/1 16/1/1 15/1/1
f 17/2/1 18/2/1 19/2/1
f 19/2/1 20/2/1 17/2/1
f 22/2/1 21/2/1 23/2/1
f 23/2/1 24/2/1 22/2/1
f 27/1/1 26/1/1 25/1/1
f 25/1/1 28/1/1 27/1/1
f 31/1/1 30/1/1 29/1/1
f 29/1/1 32/1/1 31/1/1
f 29/2/1 34/2/1 33/2/1
f 33/2/1 35/2/1 29/2/1
f 37/2/1 32/2/1 36/2/1
f 36/2/1 38/2/1 37/2/1
f 33/3/1 40/3/1 39/3/1
f 39/3/1 41/3/1 33/3/1
f 43/3/1 38/3/1 42/3/1
f 42/3/1 44/3/1 43/3/1
f 47/2/1 46/2/1 45/2/1
f 45/2/1 48/2/1 47/2/1
f 51/2/1 50/2/1 49/2/1
f 49/2/1 52/2/1 51/2/1
f 55/1/1 54/1/1 53/1/1
f 53/1/1 56/1/1 55/1/1
f 53/2/1 58/2/1 57/2/1
f 57/2/1 59/2/1 53/2/1
f 61/2/1 56/2/1 60/2/1
f 60/2/1 62/2/1 61/2/1
f 57/3/1 64/3/1 63/3/1
f 63/3/1 65/3/1 57/3/1
f 67/3/1 62/3/1 66/3/1
f 66/3/1 68/3/1 67/3/1
f 71/3/1 70/3/1 69/3/1
f 69/3/1 72/3/1 71/3/1
f 75/3/1 74/3/1 73/3/1
f 73/3/1 76/3/1 75/3/1
f 79/1/1 78/1/1 77/1/1
f 77/1/1 80/1/1 79/1/1
f 77/2/1 82/2/1 81/2/1
f 81/2/1 83/2/1 77/2/1
f 85/2/1 80/2/1 84/2/1
f 84/2/1 86/2/1 85/2/1
f 81/3/1 88/3/1 87/3/1
f 87/3/1 89/3/1 81/3/1
f 91/3/1 86/3/1 90/3/1
f 90/3/1 92/3/1 91/3/1
f 95/1/1 94/1/1 93/1/1
f 93/1/1 96/1/1 95/1/1
f 93/2/1 98/2/1 97/2/1
f 97/2/1 99/2/1 93/2/1
f 101/2/1 96/2/1 100/2/1
f 100/2/1 102/2/1 101/2/1
f 97/3/1 104/3/1 103/3/1
f 103/3/1 105/3/1 97/3/1
f 107/3/1 102/3/1 106/3/1
f 106/3/1 108/3/1 107/3/1
f 111/1/1 110/1/1 109/1/1
f 109/1/1 112/1/1 111/1/1
f 109/2/1 114/2/1 113/2/1
f 113/2/1 115/2/1 109/2/1
f 117/2/1 112/2/1 116/2/1
f 116/2/1 118/2/1 117/2/1
f 113/3/1 120/3/1 119/3/1
f 119/3/1 121/3/1 113/3/1
f 123/3/1 118/3/1 122/3/1
f 122/3/1 124/3/1 123/3/1
f 127/3/1 126/3/1 125/3/1
f 125/3/1 128/3/1 127/3/1
f 131/3/1 130/3/1 129/3/1
f 129/3/1 132/3/1 131/3/1
f 135/2/1 134/2/1 133/2/1
f 133/2/1 136/2/1 135/2/1
f 139/2/1 138/2/1 137/2/1
f 137/2/1 140/2/1 139/2/1
f 143/1/1 142/1/1 141/1/1
f 141/1/1 144/1/1 143/1/1
f 147/3/1 146/3/1 145/3/1
f 145/3/1 148/3/1 147/3/1
f 151/3/1 150/3/1 149/3/1
f 149/3/1 152/3/1 151/3/1
f 155/1/1 154/1/1 153/1/1
f 153/1/1 156/1/1 155/1/1
f 160/3/2 158/3/2 157/3/2
f 157/3/2 159/3/2 160/3/2
f 164/3/2 162/3/2 161/3/2
f 161/3/2 163/3/2 164/3/2
f 168/1/2 166/1/2 165/1/2
f 165/1/2 167/1/2 168/1/2
f 172/3/2 170/3/2 169/3/2
f 169/3/2 171/3/2 172/3/2
f 176/3/2 174/3/2 173/3/2
f 173/3/2 175/3/2 176/3/2
f 180/2/2 178/2/2 177/2/2
f 177/2/2 179/2/2 180/2/2
f 184/2/2 182/2/2 181/2/2
f 181/2/2 183/2/2 184/2/2
f 188/1/2 186/1/2 185/1/2
f 185/1/2 187/1/2 188/1/2
f 192/1/2 190/1/2 189/1/2
f 189/1/2 191/1/2 192/1/2
f 195/2/2 194/2/2 193/2/2
f 193/2/2 190/2/2 195/2/2
f 198/2/2 196/2/2 192/2/2
f 192/2/2 197/2/2 198/2/2
f 201/3/2 200/3/2 199/3/2
f 199/3/2 194/3/2 201/3/2
f 204/3/2 202/3/2 198/3/2
f 198/3/2 203/3/2 204/3/2
f 208/1/2 206/1/2 205/1/2
f 205/1/2 207/1/2 208/1/2
f 211/2/2 210/2/2 209/2/2
f 209/2/2 206/2/2 211/2/2
f 214/2/2 212/2/2 208/2/2
f 208/2/2 213/2/2 214/2/2
f 217/3/2 216/3/2 215/3/2
f 215/3/2 210/3/2 217/3/2
f 220/3/2 218/3/2 214/3/2
f 214/3/2 219/3/2 220/3/2
f 224/1/2 222/1/2 221/1/2
f 221/1/2 223/1/2 224/1/2
f 227/2/2 226/2/2 225/2/2
f 225/2/2 222/2/2 227/2/2
f 230/2/2 228/2/2 224/2/2
f 224/2/2 229/2/2 230/2/2
f 233/3/2 232/3/2 231/3/2
f 231/3/2 226/3/2 233/3/2
f 236/3/2 234/3/2 230/3/2
f 230/3/2 235/3/2 236/3/2
f 240/1/2 238/1/2 237/1/2
f 237/1/2 239/1/2 240/1/2
f 243/2/2 242/2/2 241/2/2
f 241/2/2 238/2/2 243/2/2
f 246/2/2 244/2/2 240/2/2
f 240/2/2 245/2/2 246/2/2
f 249/3/2 248/3/2 247/3/2
f 247/3/2 242/3/2 249/3/2
f 252/3/2 250/3/2 246/3/2
f 246/3/2 251/3/2 252/3/2
f 256/3/2 254/3/2 253/3/2
f 253/3/2 255/3/2 256/3/2
f 260/3/2 258/3/2 257/3/2
f 257/3/2 259/3/2 260/3/2
f 264/1/2 262/1/2 261/1/2
f 261/1/2 263/1/2 264/1/2
f 267/2/2 266/2/2 265/2/2
f 265/2/2 262/2/2 267/2/2
f 270/2/2 268/2/2 264/2/2
f 264/2/2 269/2/2 270/2/2
f 273/3/2 272/3/2 271/3/2
f 271/3/2 266/3/2 273/3/2
f 276/3/2 274/3/2 270/3/2
f 270/3/2 275/3/2 276/3/2
f 280/2/2 278/2/2 277/2/2
f 277/2/2 279/2/2 280/2/2
f 284/2/2 282/2/2 281/2/2
f 281/2/2 283/2/2 284/2/2
f 288/1/2 286/1/2 285/1/2
f 285/1/2 287/1/2 288/1/2
f 292/2/2 291/2/2 289/2/2
f 289/2/2 290/2/2 292/2/2
f 296/2/2 295/2/2 293/2/2
f 293/2/2 294/2/2 296/2/2
f 300/1/2 298/1/2 297/1/2
f 297/1/2 299/1/2 300/1/2
f 304/1/2 302/1/2 301/1/2
f 301/1/2 303/1/2 304/1/2
f 308/1/2 306/1/2 305/1/2
f 305/1/2 307/1/2 308/1/2
f 312/1/2 310/1/2 309/1/2
f 309/1/2 311/1/2 312/1/2
f 39/3/3 40/3/3 63/3/3
f 63/3/3 70/3/3 39/3/3
f 87/3/3 70/3/3 63/3/3
f 63/3/3 64/3/3 87/3/3
f 157/3/3 69/3/3 87/3/3
f 87/3/3 103/3/3 157/3/3
f 157/3/3 103/3/3 119/3/3
f 119/3/3 169/3/3 157/3/3
f 169/3/3 119/3/3 199/3/3
f 199/3/3 200/3/3 169/3/3
f 126/3/3 169/3/3 200/3/3
f 200/3/3 215/3/3 126/3/3
f 125/3/3 126/3/3 215/3/3
f 215/3/3 216/3/3 125/3/3
f 146/3/3 125/3/3 216/3/3
f 216/3/3 231/3/3 146/3/3
f 145/3/3 146/3/3 231/3/3
f 231/3/3 232/3/3 145/3/3
f 145/3/3 232/3/3 247/3/3
f 247/3/3 248/3/3 145/3/3
f 145/3/3 248/3/3 253/3/3
f 253/3/3 254/3/3 145/3/3
f 253/3/3 248/3/3 271/3/3
f 271/3/3 272/3/3 253/3/3
f 19/2/3 18/2/3 33/2/3
f 33/2/3 41/2/3 19/2/3
f 46/2/3 19/2/3 41/2/3
f 41/2/3 71/2/3 46/2/3
f 45/2/3 46/2/3 71/2/3
f 71/2/3 72/2/3 45/2/3
f 45/2/3 160/2/3 177/2/3
f 177/2/3 178/2/3 45/2/3
f 159/2/3 172/2/3 177/2/3
f 177/2/3 160/2/3 159/2/3
f 177/2/3 172/2/3 127/2/3
f 127/2/3 128/2/3 177/2/3
f 134/2/3 177/2/3 128/2/3
f 128/2/3 147/2/3 134/2/3
f 133/2/3 134/2/3 147/2/3
f 147/2/3 148/2/3 133/2/3
f 133/2/3 256/2/3 277/2/3
f 277/2/3 278/2/3 133/2/3
f 255/2/3 273/2/3 277/2/3
f 277/2/3 256/2/3 255/2/3
f 277/2/3 273/2/3 289/2/3
f 289/2/3 291/2/3 277/2/3
f 242/2/3 265/2/3 266/2/3
f 266/2/3 249/2/3 242/2/3
f 226/2/3 241/2/3 242/2/3
f 242/2/3 233/2/3 226/2/3
f 210/2/3 225/2/3 226/2/3
f 226/2/3 217/2/3 210/2/3
f 194/2/3 209/2/3 210/2/3
f 210/2/3 201/2/3 194/2/3
f 114/2/3 193/2/3 194/2/3
f 194/2/3 113/2/3 114/2/3
f 97/2/3 98/2/3 113/2/3
f 113/2/3 121/2/3 97/2/3
f 81/2/3 82/2/3 97/2/3
f 97/2/3 105/2/3 81/2/3
f 57/2/3 58/2/3 81/2/3
f 81/2/3 89/2/3 57/2/3
f 33/2/3 34/2/3 57/2/3
f 57/2/3 65/2/3 33/2/3
f 1/1/3 2/1/3 5/1/3
f 5/1/3 10/1/3 1/1/3
f 9/1/3 10/1/3 313/1/3
f 313/1/3 26/1/3 9/1/3
f 5/1/3 6/1/3 13/1/3
f 13/1/3 17/1/3 5/1/3
f 25/1/3 26/1/3 165/1/3
f 165/1/3 166/1/3 25/1/3
f 13/1/3 14/1/3 29/1/3
f 29/1/3 35/1/3 13/1/3
f 165/1/3 314/1/3 185/1/3
f 185/1/3 186/1/3 165/1/3
f 29/1/3 30/1/3 53/1/3
f 53/1/3 59/1/3 29/1/3
f 53/1/3 54/1/3 77/1/3
f 77/1/3 83/1/3 53/1/3
f 77/1/3 78/1/3 93/1/3
f 93/1/3 99/1/3 77/1/3
f 93/1/3 94/1/3 109/1/3
f 109/1/3 115/1/3 93/1/3
f 109/1/3 110/1/3 189/1/3
f 189/1/3 190/1/3 109/1/3
f 195/1/3 190/1/3 205/1/3
f 205/1/3 206/1/3 195/1/3
f 211/1/3 206/1/3 221/1/3
f 221/1/3 222/1/3 211/1/3
f 227/1/3 222/1/3 237/1/3
f 237/1/3 238/1/3 227/1/3
f 243/1/3 238/1/3 261/1/3
f 261/1/3 262/1/3 243/1/3
f 267/1/3 262/1/3 285/1/3
f 285/1/3 286/1/3 267/1/3
f 290/1/3 286/1/3 301/1/3
f 301/1/3 302/1/3 290/1/3
f 305/1/3 302/1/3 309/1/3
f 309/1/3 310/1/3 305/1/3
f 297/1/3 315/1/3 305/1/3
f 305/1/3 306/1/3 297/1/3
f 154/1/3 297/1/3 298/1/3
f 298/1/3 153/1/3 154/1/3
f 142/1/3 316/1/3 154/1/3
f 154/1/3 141/1/3 142/1/3
f 180/1/3 135/1/3 136/1/3
f 136/1/3 185/1/3 180/1/3
f 10/2/3 5/2/3 17/2/3
f 17/2/3 20/2/3 10/2/3
f 313/2/3 10/2/3 317/2/3
f 317/2/3 48/2/3 313/2/3
f 26/2/3 313/2/3 48/2/3
f 48/2/3 318/2/3 26/2/3
f 314/2/3 319/2/3 320/2/3
f 320/2/3 180/2/3 314/2/3
f 317/4/3 20/4/3 47/4/3
f 47/4/3 48/4/3 317/4/3
f 318/4/3 48/4/3 320/4/3
f 320/4/3 319/4/3 318/4/3
f 316/2/3 142/2/3 136/2/3
f 136/2/3 280/2/3 316/2/3
f 154/2/3 316/2/3 280/2/3
f 280/2/3 315/2/3 154/2/3
f 279/2/3 292/2/3 315/2/3
f 315/2/3 280/2/3 279/2/3
f 11/1/4 8/1/4 3/1/4
f 3/1/4 4/1/4 11/1/4
f 27/1/4 321/1/4 11/1/4
f 11/1/4 12/1/4 27/1/4
f 21/1/4 16/1/4 7/1/4
f 7/1/4 8/1/4 21/1/4
f 168/1/4 167/1/4 27/1/4
f 27/1/4 28/1/4 168/1/4
f 36/1/4 32/1/4 15/1/4
f 15/1/4 16/1/4 36/1/4
f 188/1/4 187/1/4 322/1/4
f 322/1/4 167/1/4 188/1/4
f 60/1/4 56/1/4 31/1/4
f 31/1/4 32/1/4 60/1/4
f 84/1/4 80/1/4 55/1/4
f 55/1/4 56/1/4 84/1/4
f 100/1/4 96/1/4 79/1/4
f 79/1/4 80/1/4 100/1/4
f 116/1/4 112/1/4 95/1/4
f 95/1/4 96/1/4 116/1/4
f 192/1/4 191/1/4 111/1/4
f 111/1/4 112/1/4 192/1/4
f 208/1/4 207/1/4 192/1/4
f 192/1/4 196/1/4 208/1/4
f 224/1/4 223/1/4 208/1/4
f 208/1/4 212/1/4 224/1/4
f 240/1/4 239/1/4 224/1/4
f 224/1/4 228/1/4 240/1/4
f 264/1/4 263/1/4 240/1/4
f 240/1/4 244/1/4 264/1/4
f 288/1/4 287/1/4 264/1/4
f 264/1/4 268/1/4 288/1/4
f 304/1/4 303/1/4 288/1/4
f 288/1/4 293/1/4 304/1/4
f 312/1/4 311/1/4 304/1/4
f 304/1/4 307/1/4 312/1/4
f 308/1/4 307/1/4 323/1/4
f 323/1/4 299/1/4 308/1/4
f 156/1/4 300/1/4 299/1/4
f 299/1/4 155/1/4 156/1/4
f 144/1/4 155/1/4 324/1/4
f 324/1/4 143/1/4 144/1/4
f 187/1/4 137/1/4 138/1/4
f 138/1/4 182/1/4 187/1/4
f 23/2/4 21/2/4 8/2/4
f 8/2/4 11/2/4 23/2/4
f 325/2/4 11/2/4 321/2/4
f 321/2/4 49/2/4 325/2/4
f 326/2/4 49/2/4 321/2/4
f 321/2/4 27/2/4 326/2/4
f 328/2/4 327/2/4 322/2/4
f 322/2/4 182/2/4 328/2/4
f 49/4/4 50/4/4 23/4/4
f 23/4/4 325/4/4 49/4/4
f 327/4/4 328/4/4 49/4/4
f 49/4/4 326/4/4 327/4/4
f 137/2/4 143/2/4 324/2/4
f 324/2/4 282/2/4 137/2/4
f 323/2/4 282/2/4 324/2/4
f 324/2/4 155/2/4 323/2/4
f 282/2/4 323/2/4 295/2/4
f 295/2/4 281/2/4 282/2/4
f 42/2/4 38/2/4 22/2/4
f 22/2/4 24/2/4 42/2/4
f 42/2/4 24/2/4 51/2/4
f 51/2/4 74/2/4 42/2/4
f 73/2/4 74/2/4 51/2/4
f 51/2/4 52/2/4 73/2/4
f 184/2/4 183/2/4 162/2/4
f 162/2/4 52/2/4 184/2/4
f 162/2/4 183/2/4 174/2/4
f 174/2/4 161/2/4 162/2/4
f 129/2/4 130/2/4 174/2/4
f 174/2/4 183/2/4 129/2/4
f 129/2/4 183/2/4 139/2/4
f 139/2/4 150/2/4 129/2/4
f 149/2/4 150/2/4 139/2/4
f 139/2/4 140/2/4 149/2/4
f 284/2/4 283/2/4 258/2/4
f 258/2/4 140/2/4 284/2/4
f 258/2/4 283/2/4 274/2/4
f 274/2/4 257/2/4 258/2/4
f 296/2/4 294/2/4 274/2/4
f 274/2/4 283/2/4 296/2/4
f 250/2/4 270/2/4 269/2/4
f 269/2/4 246/2/4 250/2/4
f 234/2/4 246/2/4 245/2/4
f 245/2/4 230/2/4 234/2/4
f 218/2/4 230/2/4 229/2/4
f 229/2/4 214/2/4 218/2/4
f 202/2/4 214/2/4 213/2/4
f 213/2/4 198/2/4 202/2/4
f 118/2/4 198/2/4 197/2/4
f 197/2/4 117/2/4 118/2/4
f 122/2/4 118/2/4 101/2/4
f 101/2/4 102/2/4 122/2/4
f 106/2/4 102/2/4 85/2/4
f 85/2/4 86/2/4 106/2/4
f 90/2/4 86/2/4 61/2/4
f 61/2/4 62/2/4 90/2/4
f 66/2/4 62/2/4 37/2/4
f 37/2/4 38/2/4 66/2/4
f 75/3/4 68/3/4 43/3/4
f 43/3/4 44/3/4 75/3/4
f 68/3/4 75/3/4 92/3/4
f 92/3/4 67/3/4 68/3/4
f 92/3/4 76/3/4 163/3/4
f 163/3/4 108/3/4 92/3/4
f 175/3/4 124/3/4 108/3/4
f 108/3/4 163/3/4 175/3/4
f 204/3/4 203/3/4 124/3/4
f 124/3/4 175/3/4 204/3/4
f 204/3/4 175/3/4 131/3/4
f 131/3/4 219/3/4 204/3/4
f 220/3/4 219/3/4 131/3/4
f 131/3/4 132/3/4 220/3/4
f 220/3/4 132/3/4 151/3/4
f 151/3/4 235/3/4 220/3/4
f 236/3/4 235/3/4 151/3/4
f 151/3/4 152/3/4 236/3/4
f 252/3/4 251/3/4 236/3/4
f 236/3/4 152/3/4 252/3/4
f 260/3/4 259/3/4 252/3/4
f 252/3/4 152/3/4 260/3/4
f 276/3/4 275/3/4 252/3/4
f 252/3/4 259/3/4 276/3/4
f 189/1/5 110/1/5 111/1/5
f 111/1/5 191/1/5 189/1/5
f 193/2/5 114/2/5 109/2/5
f 109/2/5 190/2/5 193/2/5
f 109/1/5 94/1/5 95/1/5
f 95/1/5 112/1/5 109/1/5
f 205/1/5 190/1/5 192/1/5
f 192/1/5 207/1/5 205/1/5
f 192/2/5 112/2/5 117/2/5
f 117/2/5 197/2/5 192/2/5
f 199/3/5 120/3/5 113/3/5
f 113/3/5 194/3/5 199/3/5
f 113/2/5 98/2/5 93/2/5
f 93/2/5 115/2/5 113/2/5
f 209/2/5 194/2/5 195/2/5
f 195/2/5 206/2/5 209/2/5
f 93/1/5 78/1/5 79/1/5
f 79/1/5 96/1/5 93/1/5
f 221/1/5 206/1/5 208/1/5
f 208/1/5 223/1/5 221/1/5
f 116/2/5 96/2/5 101/2/5
f 101/2/5 118/2/5 116/2/5
f 208/2/5 196/2/5 198/2/5
f 198/2/5 213/2/5 208/2/5
f 198/3/5 118/3/5 123/3/5
f 123/3/5 203/3/5 198/3/5
f 119/3/5 104/3/5 97/3/5
f 97/3/5 121/3/5 119/3/5
f 215/3/5 200/3/5 201/3/5
f 201/3/5 210/3/5 215/3/5
f 97/2/5 82/2/5 77/2/5
f 77/2/5 99/2/5 97/2/5
f 225/2/5 210/2/5 211/2/5
f 211/2/5 222/2/5 225/2/5
f 77/1/5 54/1/5 55/1/5
f 55/1/5 80/1/5 77/1/5
f 237/1/5 222/1/5 224/1/5
f 224/1/5 239/1/5 237/1/5
f 100/2/5 80/2/5 85/2/5
f 85/2/5 102/2/5 100/2/5
f 224/2/5 212/2/5 214/2/5
f 214/2/5 229/2/5 224/2/5
f 122/3/5 102/3/5 107/3/5
f 107/3/5 124/3/5 122/3/5
f 214/3/5 202/3/5 204/3/5
f 204/3/5 219/3/5 214/3/5
f 103/3/5 88/3/5 81/3/5
f 81/3/5 105/3/5 103/3/5
f 231/3/5 216/3/5 217/3/5
f 217/3/5 226/3/5 231/3/5
f 81/2/5 58/2/5 53/2/5
f 53/2/5 83/2/5 81/2/5
f 241/2/5 226/2/5 227/2/5
f 227/2/5 238/2/5 241/2/5
f 53/1/5 30/1/5 31/1/5
f 31/1/5 56/1/5 53/1/5
f 261/1/5 238/1/5 240/1/5
f 240/1/5 263/1/5 261/1/5
f 84/2/5 56/2/5 61/2/5
f 61/2/5 86/2/5 84/2/5
f 240/2/5 228/2/5 230/2/5
f 230/2/5 245/2/5 240/2/5
f 106/3/5 86/3/5 91/3/5
f 91/3/5 108/3/5 106/3/5
f 230/3/5 218/3/5 220/3/5
f 220/3/5 235/3/5 230/3/5
f 87/3/5 64/3/5 57/3/5
f 57/3/5 89/3/5 87/3/5
f 247/3/5 232/3/5 233/3/5
f 233/3/5 242/3/5 247/3/5
f 57/2/5 34/2/5 29/2/5
f 29/2/5 59/2/5 57/2/5
f 265/2/5 242/2/5 243/2/5
f 243/2/5 262/2/5 265/2/5
f 29/1/5 14/1/5 15/1/5
f 15/1/5 32/1/5 29/1/5
f 285/1/5 262/1/5 264/1/5
f 264/1/5 287/1/5 285/1/5
f 60/2/5 32/2/5 37/2/5
f 37/2/5 62/2/5 60/2/5
f 264/2/5 244/2/5 246/2/5
f 246/2/5 269/2/5 264/2/5
f 90/3/5 62/3/5 67/3/5
f 67/3/5 92/3/5 90/3/5
f 246/3/5 234/3/5 236/3/5
f 236/3/5 251/3/5 246/3/5
f 63/3/5 40/3/5 33/3/5
f 33/3/5 65/3/5 63/3/5
f 271/3/5 248/3/5 249/3/5
f 249/3/5 266/3/5 271/3/5
f 33/2/5 18/2/5 13/2/5
f 13/2/5 35/2/5 33/2/5
f 289/2/5 266/2/5 267/2/5
f 267/2/5 286/2/5 289/2/5
f 13/1/5 6/1/5 7/1/5
f 7/1/5 16/1/5 13/1/5
f 301/1/5 286/1/5 288/1/5
f 288/1/5 303/1/5 301/1/5
f 36/2/5 16/2/5 22/2/5
f 22/2/5 38/2/5 36/2/5
f 288/2/5 268/2/5 270/2/5
f 270/2/5 294/2/5 288/2/5
f 66/3/5 38/3/5 43/3/5
f 43/3/5 68/3/5 66/3/5
f 270/3/5 250/3/5 252/3/5
f 252/3/5 275/3/5 270/3/5
f 5/1/5 2/1/5 3/1/5
f 3/1/5 8/1/5 5/1/5
f 309/1/5 302/1/5 304/1/5
f 304/1/5 311/1/5 309/1/5
f 127/3/6 171/3/6 169/3/6
f 169/3/6 126/3/6 127/3/6
f 131/3/6 175/3/6 173/3/6
f 173/3/6 130/3/6 131/3/6
f 71/3/6 41/3/6 39/3/6
f 39/3/6 70/3/6 71/3/6
f 172/3/6 159/3/6 157/3/6
f 157/3/6 170/3/6 172/3/6
f 147/3/6 128/3/6 125/3/6
f 125/3/6 146/3/6 147/3/6
f 273/3/6 255/3/6 253/3/6
f 253/3/6 272/3/6 273/3/6
f 75/3/6 44/3/6 42/3/6
f 42/3/6 74/3/6 75/3/6
f 176/3/6 163/3/6 161/3/6
f 161/3/6 174/3/6 176/3/6
f 151/3/6 132/3/6 129/3/6
f 129/3/6 150/3/6 151/3/6
f 276/3/6 259/3/6 257/3/6
f 257/3/6 274/3/6 276/3/6
f 160/3/6 72/3/6 69/3/6
f 69/3/6 158/3/6 160/3/6
f 256/3/6 148/3/6 145/3/6
f 145/3/6 254/3/6 256/3/6
f 47/2/6 20/2/6 19/2/6
f 19/2/6 46/2/6 47/2/6
f 292/2/6 279/2/6 277/2/6
f 277/2/6 291/2/6 292/2/6
f 51/2/6 24/2/6 23/2/6
f 23/2/6 50/2/6 51/2/6
f 296/2/6 283/2/6 281/2/6
f 281/2/6 295/2/6 296/2/6
f 164/3/6 76/3/6 73/3/6
f 73/3/6 162/3/6 164/3/6
f 260/3/6 152/3/6 149/3/6
f 149/3/6 258/3/6 260/3/6
f 135/2/6 179/2/6 177/2/6
f 177/2/6 134/2/6 135/2/6
f 139/2/6 183/2/6 181/2/6
f 181/2/6 138/2/6 139/2/6
f 320/2/6 48/2/6 45/2/6
f 45/2/6 178/2/6 320/2/6
f 280/2/6 136/2/6 133/2/6
f 133/2/6 278/2/6 280/2/6
f 184/2/6 52/2/6 328/2/6
f 328/2/6 182/2/6 184/2/6
f 284/2/6 140/2/6 137/2/6
f 137/2/6 282/2/6 284/2/6
f 11/1/6 4/1/6 1/1/6
f 1/1/6 10/1/6 11/1/6
f 143/1/6 187/1/6 185/1/6
f 185/1/6 142/1/6 143/1/6
f 312/1/6 307/1/6 305/1/6
f 305/1/6 310/1/6 312/1/6
f 27/1/6 12/1/6 9/1/6
f 9/1/6 26/1/6 27/1/6
f 188/1/6 167/1/6 165/1/6
f 165/1/6 186/1/6 188/1/6
f 155/1/6 144/1/6 141/1/6
f 141/1/6 154/1/6 155/1/6
f 308/1/6 299/1/6 297/1/6
f 297/1/6 306/1/6 308/1/6
f 168/1/6 28/1/6 25/1/6
f 25/1/6 166/1/6 168/1/6
f 300/1/6 156/1/6 153/1/6
f 153/1/6 298/1/6 300/1/6

