# File generated by ImageToStl.com - Free Image and 3D model conversion tools

mtllib model.mtl

o obj1
v 0.3125 0.625 0
v 0.3125 0.25 0
v 0.3125 0.625 -0.125
v 0.3125 0.25 -0.125
v -0.3125 0.625 -0.125
v -0.3125 0.25 -0.125
v -0.3125 0.625 0
v -0.3125 0.25 0
v -0.3125 0.625 -0.125
v -0.3125 0.625 0
v 0.3125 0.625 -0.125
v 0.3125 0.625 0
v -0.3125 0.25 0
v -0.3125 0.25 -0.125
v 0.3125 0.25 0
v 0.3125 0.25 -0.125
v -0.3125 0.625 0
v -0.3125 0.25 0
v 0.3125 0.625 0
v 0.3125 0.25 0
v 0.3125 0.625 -0.125
v 0.3125 0.25 -0.125
v -0.3125 0.625 -0.125
v -0.3125 0.25 -0.125
vn 1 0 0
vn -1 0 0
vn 0 1 0
vn 0 -1 0
vn 0 0 1
vn 0 0 -1
vt 0.25 0.375
vt 0.25 0.46875
vt 0.28125 0.375
vt 0.28125 0.46875
vt 0 0.40625
vt 0 0.5
vt 0.03125 0.40625
vt 0.03125 0.5
vt 0.5625 0.17188
vt 0.5625 0.14062
vt 0.40625 0.17188
vt 0.40625 0.14062
vt 0.5625 0.20312
vt 0.40625 0.20312
vt 0.15625 0.09375
vt 0.15625 0.1875
vt 0.3125 0.09375
vt 0.3125 0.1875
vt 0.15625 0
vt 0.3125 0
usemtl mat0
f 1/1/1 2/2/1 3/3/1
f 2/2/1 4/4/1 3/3/1
f 5/5/2 6/6/2 7/7/2
f 6/6/2 8/8/2 7/7/2
f 9/9/3 10/10/3 11/11/3
f 10/10/3 12/12/3 11/11/3
f 13/9/4 14/13/4 15/11/4
f 14/13/4 16/14/4 15/11/4
f 17/15/5 18/16/5 19/17/5
f 18/16/5 20/18/5 19/17/5
f 21/19/6 22/15/6 23/20/6
f 22/15/6 24/17/6 23/20/6
# Vertices: 24, normals: 6, texture coordinates: 20, faces: 12

o obj2
v 0.25 0.5625 0.375
v 0.25 0.25 0.375
v 0.25 0.5625 0
v 0.25 0.25 0
v -0.25 0.5625 0
v -0.25 0.25 0
v -0.25 0.5625 0.375
v -0.25 0.25 0.375
v -0.25 0.5625 0
v -0.25 0.5625 0.375
v 0.25 0.5625 0
v 0.25 0.5625 0.375
v -0.25 0.25 0.375
v -0.25 0.25 0
v 0.25 0.25 0.375
v 0.25 0.25 0
v -0.25 0.5625 0.375
v -0.25 0.25 0.375
v 0.25 0.5625 0.375
v 0.25 0.25 0.375
v 0.25 0.5625 0
v 0.25 0.25 0
v -0.25 0.5625 0
v -0.25 0.25 0
vn 1 0 0
vn -1 0 0
vn 0 1 0
vn 0 -1 0
vn 0 0 1
vn 0 0 -1
vt 0.3125 0.09375
vt 0.3125 0.17188
vt 0.40625 0.09375
vt 0.40625 0.17188
vt 0.28125 0.34375
vt 0.28125 0.42188
vt 0.375 0.34375
vt 0.375 0.42188
vt 0.28125 0.28125
vt 0.28125 0.1875
vt 0.15625 0.28125
vt 0.15625 0.1875
vt 0.28125 0.375
vt 0.15625 0.375
vt 0.28125 0.26562
vt 0.40625 0.26562
vt 0.40625 0.34375
vt 0.40625 0.1875
usemtl mat0
f 25/21/7 26/22/7 27/23/7
f 26/22/7 28/24/7 27/23/7
f 29/25/8 30/26/8 31/27/8
f 30/26/8 32/28/8 31/27/8
f 33/29/9 34/30/9 35/31/9
f 34/30/9 36/32/9 35/31/9
f 37/29/10 38/33/10 39/31/10
f 38/33/10 40/34/10 39/31/10
f 41/35/11 42/25/11 43/36/11
f 42/25/11 44/37/11 43/36/11
f 45/30/12 46/35/12 47/38/12
f 46/35/12 48/36/12 47/38/12
# Vertices: 24, normals: 6, texture coordinates: 18, faces: 12

o obj3
v 0.1875 0.25 0.3125
v 0.1875 0.1875 0.3125
v 0.1875 0.25 -0.0625
v 0.1875 0.1875 -0.0625
v -0.1875 0.25 -0.0625
v -0.1875 0.1875 -0.0625
v -0.1875 0.25 0.3125
v -0.1875 0.1875 0.3125
v -0.1875 0.25 -0.0625
v -0.1875 0.25 0.3125
v 0.1875 0.25 -0.0625
v 0.1875 0.25 0.3125
v -0.1875 0.1875 0.3125
v -0.1875 0.1875 -0.0625
v 0.1875 0.1875 0.3125
v 0.1875 0.1875 -0.0625
v -0.1875 0.25 0.3125
v -0.1875 0.1875 0.3125
v 0.1875 0.25 0.3125
v 0.1875 0.1875 0.3125
v 0.1875 0.25 -0.0625
v 0.1875 0.1875 -0.0625
v -0.1875 0.25 -0.0625
v -0.1875 0.1875 -0.0625
vn 1 0 0
vn -1 0 0
vn 0 1 0
vn 0 -1 0
vn 0 0 1
vn 0 0 -1
vt 0.40625 0.23438
vt 0.40625 0.25
vt 0.5 0.23438
vt 0.5 0.25
vt 0.40625 0.26562
vt 0.40625 0.28125
vt 0.5 0.26562
vt 0.5 0.28125
vt 0.09375 0.40625
vt 0.09375 0.3125
vt 0 0.40625
vt 0 0.3125
vt 0.40625 0
vt 0.40625 0.09375
vt 0.3125 0
vt 0.3125 0.09375
vt 0.3125 0.17188
vt 0.3125 0.1875
vt 0.40625 0.17188
vt 0.40625 0.1875
usemtl mat0
f 49/39/13 50/40/13 51/41/13
f 50/40/13 52/42/13 51/41/13
f 53/43/14 54/44/14 55/45/14
f 54/44/14 56/46/14 55/45/14
f 57/47/15 58/48/15 59/49/15
f 58/48/15 60/50/15 59/49/15
f 61/51/16 62/52/16 63/53/16
f 62/52/16 64/54/16 63/53/16
f 65/40/17 66/43/17 67/42/17
f 66/43/17 68/45/17 67/42/17
f 69/55/18 70/56/18 71/57/18
f 70/56/18 72/58/18 71/57/18
# Vertices: 24, normals: 6, texture coordinates: 20, faces: 12

o obj4
v 0.3125 0.1875 0.4375
v 0.3125 0 0.4375
v 0.3125 0.1875 -0.1875
v 0.3125 0 -0.1875
v -0.3125 0.1875 -0.1875
v -0.3125 0 -0.1875
v -0.3125 0.1875 0.4375
v -0.3125 0 0.4375
v -0.3125 0.1875 -0.1875
v -0.3125 0.1875 0.4375
v 0.3125 0.1875 -0.1875
v 0.3125 0.1875 0.4375
v -0.3125 0 0.4375
v -0.3125 0 -0.1875
v 0.3125 0 0.4375
v 0.3125 0 -0.1875
v -0.3125 0.1875 0.4375
v -0.3125 0 0.4375
v 0.3125 0.1875 0.4375
v 0.3125 0 0.4375
v 0.3125 0.1875 -0.1875
v 0.3125 0 -0.1875
v -0.3125 0.1875 -0.1875
v -0.3125 0 -0.1875
vn 1 0 0
vn -1 0 0
vn 0 1 0
vn 0 -1 0
vn 0 0 1
vn 0 0 -1
vt 0.375 0.34375
vt 0.375 0.39062
vt 0.53125 0.34375
vt 0.53125 0.39062
vt 0.40625 0
vt 0.40625 0.04688
vt 0.5625 0
vt 0.5625 0.04688
vt 0.15625 0.15625
vt 0.15625 0
vt 0 0.15625
vt 0 0
vt 0.15625 0.3125
vt 0 0.3125
vt 0.375 0.4375
vt 0.53125 0.4375
vt 0.09375 0.375
vt 0.09375 0.42188
vt 0.25 0.375
vt 0.25 0.42188
usemtl mat0
f 73/59/19 74/60/19 75/61/19
f 74/60/19 76/62/19 75/61/19
f 77/63/20 78/64/20 79/65/20
f 78/64/20 80/66/20 79/65/20
f 81/67/21 82/68/21 83/69/21
f 82/68/21 84/70/21 83/69/21
f 85/67/22 86/71/22 87/69/22
f 86/71/22 88/72/22 87/69/22
f 89/60/23 90/73/23 91/62/23
f 90/73/23 92/74/23 91/62/23
f 93/75/24 94/76/24 95/77/24
f 94/76/24 96/78/24 95/77/24
# Vertices: 24, normals: 6, texture coordinates: 20, faces: 12

o obj5
v 0.375 0.0625 -0.25
v 0.375 0 -0.25
v 0.375 0.0625 -0.4375
v 0.375 0 -0.4375
v -0.1875 0.0625 -0.4375
v -0.1875 0 -0.4375
v -0.1875 0.0625 -0.25
v -0.1875 0 -0.25
v -0.1875 0.0625 -0.4375
v -0.1875 0.0625 -0.25
v 0.375 0.0625 -0.4375
v 0.375 0.0625 -0.25
v -0.1875 0 -0.25
v -0.1875 0 -0.4375
v 0.375 0 -0.25
v 0.375 0 -0.4375
v -0.1875 0.0625 -0.25
v -0.1875 0 -0.25
v 0.375 0.0625 -0.25
v 0.375 0 -0.25
v 0.375 0.0625 -0.4375
v 0.375 0 -0.4375
v -0.1875 0.0625 -0.4375
v -0.1875 0 -0.4375
vn 1 0 0
vn -1 0 0
vn 0 1 0
vn 0 -1 0
vn 0 0 1
vn 0 0 -1
vt 0.40625 0.28125
vt 0.40625 0.29688
vt 0.45312 0.28125
vt 0.45312 0.29688
vt 0.40625 0.3125
vt 0.45312 0.3125
vt 0.54688 0.09375
vt 0.54688 0.04688
vt 0.40625 0.09375
vt 0.40625 0.04688
vt 0.54688 0.14062
vt 0.40625 0.14062
vt 0.40625 0.21875
vt 0.40625 0.23438
vt 0.54688 0.21875
vt 0.54688 0.23438
vt 0.40625 0.20312
vt 0.54688 0.20312
usemtl mat0
f 97/79/25 98/80/25 99/81/25
f 98/80/25 100/82/25 99/81/25
f 101/80/26 102/83/26 103/82/26
f 102/83/26 104/84/26 103/82/26
f 105/85/27 106/86/27 107/87/27
f 106/86/27 108/88/27 107/87/27
f 109/85/28 110/89/28 111/87/28
f 110/89/28 112/90/28 111/87/28
f 113/91/29 114/92/29 115/93/29
f 114/92/29 116/94/29 115/93/29
f 117/95/30 118/91/30 119/96/30
f 118/91/30 120/93/30 119/96/30
# Vertices: 24, normals: 6, texture coordinates: 18, faces: 12

o obj6
v -0.25 0.0625 -0.25
v -0.25 0 -0.25
v -0.25 0.0625 -0.4375
v -0.25 0 -0.4375
v -0.375 0.0625 -0.4375
v -0.375 0 -0.4375
v -0.375 0.0625 -0.25
v -0.375 0 -0.25
v -0.375 0.0625 -0.4375
v -0.375 0.0625 -0.25
v -0.25 0.0625 -0.4375
v -0.25 0.0625 -0.25
v -0.375 0 -0.25
v -0.375 0 -0.4375
v -0.25 0 -0.25
v -0.25 0 -0.4375
v -0.375 0.0625 -0.25
v -0.375 0 -0.25
v -0.25 0.0625 -0.25
v -0.25 0 -0.25
v -0.25 0.0625 -0.4375
v -0.25 0 -0.4375
v -0.375 0.0625 -0.4375
v -0.375 0 -0.4375
vn 1 0 0
vn -1 0 0
vn 0 1 0
vn 0 -1 0
vn 0 0 1
vn 0 0 -1
vt 0.09375 0.35938
vt 0.09375 0.375
vt 0.14062 0.35938
vt 0.14062 0.375
vt 0.03125 0.40625
vt 0.03125 0.42188
vt 0.07812 0.40625
vt 0.07812 0.42188
vt 0.125 0.35938
vt 0.125 0.3125
vt 0.09375 0.3125
vt 0.15625 0.3125
vt 0.15625 0.35938
vt 0.40625 0.32812
vt 0.40625 0.34375
vt 0.4375 0.32812
vt 0.4375 0.34375
vt 0.40625 0.3125
vt 0.4375 0.3125
usemtl mat0
f 121/97/31 122/98/31 123/99/31
f 122/98/31 124/100/31 123/99/31
f 125/101/32 126/102/32 127/103/32
f 126/102/32 128/104/32 127/103/32
f 129/105/33 130/106/33 131/97/33
f 130/106/33 132/107/33 131/97/33
f 133/108/34 134/109/34 135/106/34
f 134/109/34 136/105/34 135/106/34
f 137/110/35 138/111/35 139/112/35
f 138/111/35 140/113/35 139/112/35
f 141/114/36 142/110/36 143/115/36
f 142/110/36 144/112/36 143/115/36
# Vertices: 24, normals: 6, texture coordinates: 19, faces: 12

o obj7
v 0.0625 6.25E-05 -0.25
v 0.0625 6.25E-05 -0.1875
v 0.125 6.25E-05 -0.25
v 0.125 6.25E-05 -0.1875
v 0.0625 0 -0.1875
v 0.0625 0 -0.25
v 0.125 0 -0.1875
v 0.125 0 -0.25
vn 0 1 0
vn 0 -1 0
vt 0.28125 0.0625
vt 0.28125 0.07812
vt 0.29688 0.0625
vt 0.29688 0.07812
usemtl mat0
f 145/116/37 146/117/37 147/118/37
f 146/117/37 148/119/37 147/118/37
f 149/117/38 150/116/38 151/119/38
f 150/116/38 152/118/38 151/119/38
# Vertices: 8, normals: 2, texture coordinates: 4, faces: 4

o obj8
v -0.3125 6.25E-05 -0.25
v -0.3125 6.25E-05 -0.1875
v -0.25 6.25E-05 -0.25
v -0.25 6.25E-05 -0.1875
v -0.3125 0 -0.1875
v -0.3125 0 -0.25
v -0.25 0 -0.1875
v -0.25 0 -0.25
vn 0 1 0
vn 0 -1 0
vt 0.28125 0.0625
vt 0.28125 0.07812
vt 0.29688 0.0625
vt 0.29688 0.07812
usemtl mat0
f 153/120/39 154/121/39 155/122/39
f 154/121/39 156/123/39 155/122/39
f 157/121/40 158/120/40 159/123/40
f 158/120/40 160/122/40 159/123/40
# Vertices: 8, normals: 2, texture coordinates: 4, faces: 4

